<svg width="164" height="38" viewBox="0 0 164 38" fill="none" xmlns="http://www.w3.org/2000/svg">
<!-- <g filter="url(#filter0_dd_4155_249)">
<rect x="3.1" y="2.1" width="31.8" height="31.8" rx="7.9" fill="white"/>
<rect x="3.1" y="2.1" width="31.8" height="31.8" rx="7.9" fill="url(#paint0_linear_4155_249)"/>
<rect x="3.1" y="2.1" width="31.8" height="31.8" rx="7.9" stroke="#D0D5DD" stroke-width="0.2"/>
<path d="M18.3546 13.1827C22.7105 11.4503 27.4742 12.8184 29.6373 14.9132C30.106 15.3671 30.5041 15.8275 30.845 16.2851C31.0394 15.2107 31.0552 14.1405 30.8681 13.1055C30.1847 9.32646 26.6195 7.18558 23.4233 8.29146C20.2415 9.39237 19.0005 11.5321 19.0005 11.5321C19.0005 11.5321 17.7595 9.39237 14.5777 8.29146C11.3812 7.18558 7.81603 9.32669 7.1328 13.1055C6.62842 15.8944 7.58356 18.9391 9.61033 21.6298C10.0372 21.7732 10.4847 21.8809 10.9586 21.943C13.7978 22.3163 14.8184 21.557 16.0178 21.0486C16.8142 20.7112 17.4134 21.0942 17.3843 21.3626C17.3392 21.7786 15.7693 22.4895 16.106 22.6388C17.4351 23.2284 19.0718 23.2334 20.3053 22.18C21.838 20.8712 22.4114 21.7658 22.4114 21.7658C22.4114 21.7658 21.6502 23.7076 19.3581 24.6717C17.4457 25.4761 15.4419 25.6743 13.6107 25.4683C15.19 26.5846 17.0035 27.5204 19.0005 28.1882C24.7099 26.2784 28.9276 22.1871 30.4145 17.9096C29.4072 16.9157 28.1716 16.2995 26.6988 16.0763C23.8674 15.647 22.8322 16.3862 21.6228 16.8708C20.8198 17.1926 20.2285 16.7978 20.263 16.5299C20.3161 16.1148 21.8999 15.4351 21.5661 15.279C20.249 14.6633 18.6125 14.626 17.3585 15.6548C15.8003 16.9332 15.2446 16.0274 15.2446 16.0274C15.2446 16.0274 16.0438 14.1015 18.3546 13.1827ZM17.2709 18.5051H18.3709V17.4052H19.6296V18.5051H20.7296V19.7639H19.6296V20.8638H18.3709V19.7639H17.2709V18.5051Z" fill="url(#paint1_linear_4155_249)"/>
<path d="M17.2709 18.5052H18.3709V17.4052H19.6296V18.5052H20.7295V19.7639H19.6378C21.2597 20.5834 24.2383 21.8027 27.8177 22.3451C28.9956 20.9517 29.8813 19.4428 30.4143 17.9096C29.4069 16.9157 28.1713 16.2996 26.6986 16.0763C23.8672 15.647 22.8319 16.3863 21.6226 16.8708C20.8196 17.1926 20.2282 16.7978 20.2627 16.5299C20.3159 16.1148 21.8997 15.4351 21.5659 15.279C20.2488 14.6633 18.6123 14.626 17.3583 15.6548C15.8 16.9332 15.2443 16.0274 15.2443 16.0274C15.2443 16.0274 16.0438 14.1013 18.3543 13.1823C22.7102 11.4499 27.4739 12.818 29.637 14.9128C30.1057 15.3666 30.5038 15.8271 30.8447 16.2847C31.0392 15.2102 31.055 14.14 30.8679 13.105C30.1844 9.326 26.6192 7.18512 23.423 8.291C20.2412 9.39191 19.0002 11.5316 19.0002 11.5316C19.0002 11.5316 17.7592 9.39191 14.5774 8.291C12.7519 7.65927 10.8067 8.0883 9.34619 9.27521C10.0323 10.7442 10.836 12.1168 13.1254 14.8773C14.9868 17.1222 17.2709 18.5052 17.2709 18.5052Z" fill="url(#paint2_linear_4155_249)"/>
<path opacity="0.31" d="M27.277 9.64942C24.2712 8.13932 21.169 10.489 20.1851 11.7298C21.882 11.3724 23.3668 11.189 25.2457 11.5838C28.0252 12.1678 29.0654 13.1714 30.3064 14.6541C30.0871 11.9068 28.3519 10.1895 27.277 9.64942Z" fill="url(#paint3_linear_4155_249)"/>
</g> -->
<path d="M 17.78 24.605 L 17.5 11.69 A 124.413 124.413 0 0 1 16.626 15.968 Q 14.53 25.305 12.53 25.305 L 12.04 25.305 A 1.911 1.911 0 0 1 10.751 24.803 A 3.051 3.051 0 0 1 10.29 24.29 Q 8.963 22.539 7.431 15.253 A 151.884 151.884 0 0 1 6.685 11.445 A 402.402 402.402 0 0 0 6.455 15.68 Q 6.18 21.341 6.161 25.492 A 132.202 132.202 0 0 0 6.16 26.075 Q 4.9 26.705 3.43 26.705 A 4.185 4.185 0 0 1 2.478 26.606 Q 1.184 26.303 0.932 25.067 A 3.075 3.075 0 0 1 0.875 24.605 L 0 3.465 A 0.673 0.673 0 0 1 0.084 3.34 Q 0.223 3.171 0.525 2.958 Q 0.945 2.66 1.4 2.468 A 4.138 4.138 0 0 1 1.72 2.349 Q 2.057 2.238 2.522 2.134 A 14.201 14.201 0 0 1 2.677 2.1 A 7.831 7.831 0 0 1 3.658 1.959 A 10.137 10.137 0 0 1 4.498 1.925 A 3.754 3.754 0 0 1 5.016 1.958 Q 5.623 2.043 5.95 2.345 A 2.766 2.766 0 0 1 6.38 2.226 Q 6.608 2.18 6.876 2.158 A 6.921 6.921 0 0 1 7.455 2.135 Q 9.45 2.135 10.08 4.06 A 14.903 14.903 0 0 1 10.376 5.224 Q 10.963 7.877 11.972 14.649 A 597.896 597.896 0 0 1 12.425 17.745 A 764.376 764.376 0 0 1 13.089 13.97 Q 14.285 7.286 14.822 5.164 A 13.05 13.05 0 0 1 14.945 4.708 A 8.816 8.816 0 0 1 15.241 3.85 Q 15.805 2.471 16.625 2.17 A 2.676 2.676 0 0 1 17.111 2.074 Q 17.654 2.017 18.34 2.135 A 8.338 8.338 0 0 1 19.888 1.932 A 9.535 9.535 0 0 1 20.265 1.925 Q 22.088 1.925 23.001 2.359 A 1.809 1.809 0 0 1 23.607 2.8 Q 24.272 3.573 24.35 5.33 A 10.913 10.913 0 0 1 24.36 5.81 Q 24.36 5.871 24.016 12.128 A 29070.997 29070.997 0 0 1 23.905 14.14 A 544.687 544.687 0 0 0 23.706 17.984 Q 23.45 23.319 23.45 26.075 A 5.618 5.618 0 0 1 22.237 26.506 Q 21.625 26.651 20.905 26.706 A 12.061 12.061 0 0 1 19.985 26.74 A 3.095 3.095 0 0 1 19.124 26.631 Q 18.156 26.35 17.884 25.351 A 3.244 3.244 0 0 1 17.78 24.605 Z M 85.75 24.5 L 85.75 22.855 A 3.046 3.046 0 0 1 83.598 24.397 A 5.2 5.2 0 0 1 82.53 24.5 A 6.771 6.771 0 0 1 81.163 24.371 Q 80.335 24.2 79.704 23.803 A 3.631 3.631 0 0 1 79.012 23.24 A 4.3 4.3 0 0 1 77.807 20.269 A 5.595 5.595 0 0 1 77.805 20.125 L 77.805 12.11 L 77.035 9.695 Q 77.525 9.065 78.593 8.558 Q 79.66 8.05 80.675 8.05 A 2.076 2.076 0 0 1 82.127 8.639 A 3.048 3.048 0 0 1 82.425 8.96 Q 83.16 9.87 83.16 11.025 L 83.16 18.935 A 3.801 3.801 0 0 0 83.196 19.479 Q 83.289 20.12 83.623 20.43 A 1.005 1.005 0 0 0 83.773 20.545 Q 84.291 20.871 85.35 20.946 A 8.893 8.893 0 0 0 85.75 20.965 L 85.75 12.11 L 84.945 9.695 A 2.902 2.902 0 0 1 85.419 9.222 Q 85.666 9.022 85.984 8.837 A 6.704 6.704 0 0 1 86.52 8.558 A 5.757 5.757 0 0 1 87.518 8.193 A 4.328 4.328 0 0 1 88.603 8.05 Q 89.6 8.05 90.353 8.96 Q 91.105 9.87 91.105 11.025 L 91.105 23.275 A 12.216 12.216 0 0 1 90.932 25.399 Q 90.553 27.546 89.338 28.858 A 5.598 5.598 0 0 1 86.812 30.397 Q 85.608 30.765 84.07 30.765 A 10.26 10.26 0 0 1 80.595 30.181 A 9.796 9.796 0 0 1 80.377 30.1 A 14.297 14.297 0 0 0 79.382 29.757 Q 78.314 29.435 77.56 29.435 A 10.789 10.789 0 0 1 77.453 28.813 Q 77.411 28.507 77.395 28.239 A 5.191 5.191 0 0 1 77.385 27.93 Q 77.385 27.3 77.56 26.758 Q 77.735 26.215 78.365 25.76 Q 78.995 25.305 79.975 25.305 A 3.676 3.676 0 0 1 80.871 25.424 Q 81.275 25.525 81.712 25.714 A 7.603 7.603 0 0 1 82.18 25.935 Q 83.194 26.457 83.848 26.546 A 1.892 1.892 0 0 0 84.105 26.565 A 1.845 1.845 0 0 0 84.834 26.432 Q 85.629 26.092 85.734 24.887 A 4.466 4.466 0 0 0 85.75 24.5 Z M 115.325 19.46 L 115.325 22.61 A 11.214 11.214 0 0 0 115.358 23.506 Q 115.443 24.561 115.745 25.165 A 1.26 1.26 0 0 1 115.512 25.544 Q 115.204 25.9 114.573 26.233 A 4.441 4.441 0 0 1 112.691 26.734 A 5.265 5.265 0 0 1 112.437 26.74 A 3.08 3.08 0 0 1 111.693 26.655 A 2.092 2.092 0 0 1 110.617 26.023 A 2.415 2.415 0 0 1 110.073 24.976 Q 109.97 24.568 109.97 24.08 L 109.97 9.31 A 25.174 25.174 0 0 0 109.912 7.545 Q 109.848 6.645 109.716 5.884 A 10.117 10.117 0 0 0 109.375 4.48 L 109.165 3.815 A 4.568 4.568 0 0 1 109.264 3.695 Q 109.387 3.553 109.568 3.36 A 1.504 1.504 0 0 1 109.736 3.209 Q 110.021 2.987 110.596 2.675 A 15.25 15.25 0 0 1 110.722 2.608 A 3.997 3.997 0 0 1 112.029 2.173 A 3.724 3.724 0 0 1 112.56 2.135 A 2.307 2.307 0 0 1 114.757 3.444 Q 115.268 4.42 115.319 6.124 A 12.932 12.932 0 0 1 115.325 6.51 L 115.325 17.43 A 4.339 4.339 0 0 1 116.187 16.981 A 3.629 3.629 0 0 1 116.83 16.8 A 32.314 32.314 0 0 0 117.425 14.714 Q 118.019 12.361 118.541 9.142 A 104.229 104.229 0 0 0 118.615 8.68 Q 119.305 8.371 120.334 8.272 A 10.949 10.949 0 0 1 121.38 8.225 A 3.272 3.272 0 0 1 122.336 8.353 Q 123.76 8.788 123.76 10.71 A 4.889 4.889 0 0 1 123.68 11.544 Q 123.524 12.438 123.064 13.657 A 23.144 23.144 0 0 1 122.745 14.455 Q 121.852 16.579 120.581 17.891 A 7.703 7.703 0 0 1 120.225 18.235 L 122.325 21.49 Q 123.331 22.947 123.856 23.648 A 21.777 21.777 0 0 0 123.865 23.66 L 124.425 24.395 A 3.451 3.451 0 0 1 123.717 25.624 A 3.32 3.32 0 0 1 122.395 26.495 A 3.603 3.603 0 0 1 121.463 26.716 A 4.459 4.459 0 0 1 120.995 26.74 Q 119.14 26.74 118.265 25.025 L 115.325 19.46 Z M 98.7 12.6 L 98.7 22.61 A 11.214 11.214 0 0 0 98.733 23.506 Q 98.818 24.561 99.12 25.165 A 1.26 1.26 0 0 1 98.887 25.544 Q 98.579 25.9 97.948 26.233 A 4.441 4.441 0 0 1 96.066 26.734 A 5.265 5.265 0 0 1 95.812 26.74 A 3.08 3.08 0 0 1 95.068 26.655 A 2.092 2.092 0 0 1 93.992 26.023 A 2.415 2.415 0 0 1 93.448 24.976 Q 93.345 24.568 93.345 24.08 L 93.345 15.19 A 24.916 24.916 0 0 0 93.269 13.189 Q 93.139 11.578 92.785 10.36 L 92.575 9.695 A 4.568 4.568 0 0 1 92.674 9.575 Q 92.797 9.433 92.978 9.24 A 1.483 1.483 0 0 1 93.147 9.089 Q 93.445 8.857 94.056 8.536 A 14.777 14.777 0 0 1 94.115 8.505 Q 94.99 8.05 95.935 8.05 A 2.522 2.522 0 0 1 97.194 8.352 Q 98.289 8.969 98.595 10.85 A 3.736 3.736 0 0 1 99.515 9.431 A 4.894 4.894 0 0 1 100.047 8.978 Q 100.94 8.319 102.372 8.211 A 7.739 7.739 0 0 1 102.952 8.19 A 4.005 4.005 0 0 1 105.91 9.426 A 5.014 5.014 0 0 1 106.05 9.573 A 4.606 4.606 0 0 1 107.086 11.516 Q 107.275 12.221 107.305 13.056 A 8.876 8.876 0 0 1 107.31 13.37 L 107.31 22.82 L 108.08 24.605 A 5.292 5.292 0 0 1 107.966 24.795 Q 107.852 24.976 107.695 25.2 A 1.649 1.649 0 0 1 107.535 25.39 Q 107.253 25.685 106.665 26.106 A 14.288 14.288 0 0 1 106.61 26.145 A 3.271 3.271 0 0 1 105.663 26.617 A 2.886 2.886 0 0 1 104.825 26.74 A 2.764 2.764 0 0 1 103.406 26.395 Q 101.955 25.546 101.955 22.61 L 101.955 15.855 Q 101.955 14.354 101.529 13.619 A 1.567 1.567 0 0 0 101.255 13.265 A 1.896 1.896 0 0 0 100.654 12.893 Q 100.079 12.66 99.182 12.612 A 9.1 9.1 0 0 0 98.7 12.6 Z M 71.715 20.125 L 74.9 19.32 Q 76.013 19.748 76.218 21.317 A 5.932 5.932 0 0 1 76.265 22.085 A 5.755 5.755 0 0 1 75.764 24.404 A 7.307 7.307 0 0 1 75.355 25.2 A 3.764 3.764 0 0 1 74.725 26.012 A 2.541 2.541 0 0 1 72.905 26.74 L 66.99 26.46 Q 65.721 26.46 64.724 26.702 A 6.868 6.868 0 0 0 64.575 26.74 A 7.138 7.138 0 0 1 63.703 25.161 A 5.545 5.545 0 0 1 63.315 23.135 Q 63.315 21.28 64.855 21.035 L 63.84 3.08 A 14.596 14.596 0 0 1 65.354 2.258 Q 66.115 1.905 66.807 1.718 A 5.66 5.66 0 0 1 68.285 1.505 A 5.369 5.369 0 0 1 69.458 1.626 Q 70.255 1.804 70.84 2.247 A 3.187 3.187 0 0 1 71.208 2.573 Q 72.119 3.515 72.226 5.782 A 13.278 13.278 0 0 1 72.24 6.405 A 178.318 178.318 0 0 1 72.035 14.8 A 211.757 211.757 0 0 1 71.715 20.125 Z M 53.62 6.51 L 53.62 22.82 L 54.355 24.605 A 5.292 5.292 0 0 1 54.241 24.795 Q 54.127 24.976 53.97 25.2 Q 53.729 25.544 52.93 26.125 A 14.546 14.546 0 0 1 52.902 26.145 A 3.141 3.141 0 0 1 51.924 26.63 A 2.852 2.852 0 0 1 51.135 26.74 A 2.97 2.97 0 0 1 50.024 26.544 Q 49.246 26.233 48.794 25.427 A 3.843 3.843 0 0 1 48.51 24.78 Q 47.39 26.74 45.22 26.74 A 5.386 5.386 0 0 1 43.597 26.507 A 4.308 4.308 0 0 1 41.72 25.323 A 4.867 4.867 0 0 1 40.392 22 A 6.298 6.298 0 0 1 40.39 21.84 L 40.39 16.45 A 9.735 9.735 0 0 1 40.659 14.097 A 6.777 6.777 0 0 1 42.385 10.938 A 6.559 6.559 0 0 1 47.149 8.891 A 8.153 8.153 0 0 1 47.285 8.89 A 4.505 4.505 0 0 1 47.819 8.923 A 5.76 5.76 0 0 1 48.265 8.995 A 21.45 21.45 0 0 0 47.703 4.799 A 23.741 23.741 0 0 0 47.635 4.515 L 47.46 3.815 A 4.568 4.568 0 0 1 47.559 3.695 Q 47.682 3.553 47.863 3.36 A 1.553 1.553 0 0 1 48.032 3.208 Q 48.344 2.962 49 2.608 Q 49.875 2.135 50.855 2.135 A 2.307 2.307 0 0 1 53.052 3.444 Q 53.563 4.42 53.614 6.124 A 12.932 12.932 0 0 1 53.62 6.51 Z M 38.549 22.468 A 1.292 1.292 0 0 0 38.185 21.735 A 13.857 13.857 0 0 1 37.385 21.831 A 10.717 10.717 0 0 1 36.435 21.875 Q 35.15 21.875 34.196 21.545 A 3.774 3.774 0 0 1 32.375 20.265 A 14.349 14.349 0 0 0 33.838 19.741 A 11.546 11.546 0 0 0 36.575 18.13 A 5.361 5.361 0 0 0 38.371 15.666 A 6.349 6.349 0 0 0 38.71 13.545 Q 38.71 11.06 37.468 9.625 A 4.037 4.037 0 0 0 35.889 8.485 A 4.426 4.426 0 0 0 34.248 8.19 Q 32.27 8.19 30.87 9.695 Q 28.945 9.905 27.44 12.058 A 5.655 5.655 0 0 0 27.233 12.377 Q 26.328 13.876 26.054 16.336 A 21.017 21.017 0 0 0 25.935 18.655 Q 25.935 21.021 26.56 22.683 A 5.88 5.88 0 0 0 28.14 25.06 Q 29.155 25.935 30.275 26.338 Q 31.395 26.74 32.813 26.74 A 8.962 8.962 0 0 0 33.592 26.707 A 7.406 7.406 0 0 0 35.42 26.32 Q 36.61 25.9 37.258 25.288 Q 37.905 24.675 38.238 24.028 Q 38.57 23.38 38.57 22.75 A 1.81 1.81 0 0 0 38.549 22.468 Z M 61.425 12.425 L 61.425 22.82 L 62.195 24.605 A 5.292 5.292 0 0 1 62.081 24.795 Q 61.967 24.976 61.81 25.2 A 1.649 1.649 0 0 1 61.65 25.39 Q 61.368 25.685 60.78 26.106 A 14.288 14.288 0 0 1 60.725 26.145 A 3.271 3.271 0 0 1 59.778 26.617 A 2.886 2.886 0 0 1 58.94 26.74 A 2.764 2.764 0 0 1 57.521 26.395 Q 56.07 25.546 56.07 22.61 A 711.758 711.758 0 0 1 56.082 18.36 Q 56.124 11.383 56.315 8.785 Q 56.865 8.235 57.903 8.097 A 5.732 5.732 0 0 1 58.66 8.05 A 2.307 2.307 0 0 1 60.857 9.359 Q 61.368 10.335 61.419 12.039 A 12.932 12.932 0 0 1 61.425 12.425 Z M 45.395 12.845 L 45.395 19.88 A 4.835 4.835 0 0 0 45.446 20.609 Q 45.503 20.982 45.624 21.281 A 1.933 1.933 0 0 0 46.007 21.893 A 1.807 1.807 0 0 0 46.551 22.274 Q 47.185 22.576 48.265 22.645 L 48.265 15.015 A 2.32 2.32 0 0 0 48.106 14.374 A 1.743 1.743 0 0 0 47.477 13.598 Q 46.795 13.125 45.395 12.845 Z M 60.865 5.478 A 3.088 3.088 0 0 0 60.944 5.369 Q 61.565 4.466 61.565 3.098 A 5.87 5.87 0 0 0 61.548 2.646 Q 61.511 2.167 61.393 1.767 A 2.789 2.789 0 0 0 60.917 0.823 Q 60.27 0 58.66 0 Q 57.785 0 56.963 0.613 Q 56.346 1.072 56.054 1.394 A 1.728 1.728 0 0 0 55.895 1.593 A 16.703 16.703 0 0 0 55.746 1.821 Q 55.604 2.04 55.51 2.205 A 19.662 19.662 0 0 0 55.6 2.608 Q 55.882 3.806 56.243 4.62 A 5.176 5.176 0 0 0 56.648 5.373 A 2.177 2.177 0 0 0 57.896 6.294 A 3.068 3.068 0 0 0 58.748 6.405 A 3.529 3.529 0 0 0 59.488 6.332 A 2.253 2.253 0 0 0 60.865 5.478 Z M 31.22 12.915 L 31.22 16.065 A 14.607 14.607 0 0 0 31.247 16.988 Q 31.308 17.935 31.5 18.585 Q 33.845 17.29 33.845 15.26 A 2.492 2.492 0 0 0 33.649 14.236 Q 33.184 13.195 31.618 12.96 A 5.83 5.83 0 0 0 31.22 12.915 Z" fill="white"/>
<defs>
<filter id="filter0_dd_4155_249" x="0" y="0" width="38" height="38" filterUnits="userSpaceOnUse" color-interpolation-filters="sRGB">
<feFlood flood-opacity="0" result="BackgroundImageFix"/>
<feColorMatrix in="SourceAlpha" type="matrix" values="0 0 0 0 0 0 0 0 0 0 0 0 0 0 0 0 0 0 127 0" result="hardAlpha"/>
<feOffset dy="1"/>
<feGaussianBlur stdDeviation="1"/>
<feColorMatrix type="matrix" values="0 0 0 0 0.0627451 0 0 0 0 0.0941176 0 0 0 0 0.156863 0 0 0 0.06 0"/>
<feBlend mode="normal" in2="BackgroundImageFix" result="effect1_dropShadow_4155_249"/>
<feColorMatrix in="SourceAlpha" type="matrix" values="0 0 0 0 0 0 0 0 0 0 0 0 0 0 0 0 0 0 127 0" result="hardAlpha"/>
<feOffset dy="1"/>
<feGaussianBlur stdDeviation="1.5"/>
<feColorMatrix type="matrix" values="0 0 0 0 0.0627451 0 0 0 0 0.0941176 0 0 0 0 0.156863 0 0 0 0.1 0"/>
<feBlend mode="normal" in2="effect1_dropShadow_4155_249" result="effect2_dropShadow_4155_249"/>
<feBlend mode="normal" in="SourceGraphic" in2="effect2_dropShadow_4155_249" result="shape"/>
</filter>
<linearGradient id="paint0_linear_4155_249" x1="19" y1="2" x2="19" y2="34" gradientUnits="userSpaceOnUse">
<stop stop-color="white"/>
<stop offset="1" stop-color="#D0D5DD"/>
</linearGradient>
<linearGradient id="paint1_linear_4155_249" x1="10.1989" y1="24.2137" x2="27.8347" y2="6.57788" gradientUnits="userSpaceOnUse">
<stop stop-color="#0076C1"/>
<stop offset="0.0737" stop-color="#0B82C6"/>
<stop offset="0.2766" stop-color="#269ED3"/>
<stop offset="0.4546" stop-color="#36AFDA"/>
<stop offset="0.587" stop-color="#3CB5DD"/>
</linearGradient>
<linearGradient id="paint2_linear_4155_249" x1="10.1388" y1="24.2537" x2="27.8274" y2="6.56509" gradientUnits="userSpaceOnUse">
<stop stop-color="#00A482"/>
<stop offset="1" stop-color="#79DD83"/>
</linearGradient>
<linearGradient id="paint3_linear_4155_249" x1="24.8608" y1="13.5072" x2="28.5288" y2="10.1131" gradientUnits="userSpaceOnUse">
<stop stop-color="#00A482"/>
<stop offset="1" stop-color="#79DD83"/>
</linearGradient>
</defs>
</svg>
